{
  "accessors": [
    {
      "bufferView": 2,
      "componentType": 5126,
      "count": 220,
      "max": [
        1.7805042266845703,
        63.695625305175781,
        1.7324532270431519
      ],
      "min": [
        -1.983057975769043,
        62.011295318603516,
        0.73406034708023071
      ],
      "type": "VEC3"
    },
    {
      "bufferView": 2,
      "byteOffset": 2640,
      "componentType": 5126,
      "count": 220,
      "max": [
        0.90039479732513428,
        0.67975717782974243,
        0.99971652030944824
      ],
      "min": [
        -0.89344638586044312,
        -0.87980371713638306,
        0.11627703160047531
      ],
      "type": "VEC3"
    },
    {
      "bufferView": 3,
      "componentType": 5126,
      "count": 220,
      "max": [
        1,
        1,
        1,
        1
      ],
      "min": [
        1,
        1,
        1,
        1
      ],
      "type": "VEC4"
    },
    {
      "bufferView": 1,
      "componentType": 5126,
      "count": 220,
      "max": [
        0.98154830932617188,
        0.98888623714447021
      ],
      "min": [
        0.0053011775016784668,
        0.010540544986724854
      ],
      "type": "VEC2"
    },
    {
      "bufferView": 0,
      "componentType": 5125,
      "count": 1080,
      "max": [
        219
      ],
      "min": [
        0
      ],
      "type": "SCALAR"
    },
    {
      "bufferView": 2,
      "byteOffset": 5280,
      "componentType": 5126,
      "count": 24955,
      "max": [
        12.806118011474609,
        59.361637115478516,
        4.919130802154541
      ],
      "min": [
        -12.995148658752441,
        -1.2406654357910156,
        -8.3187999725341797
      ],
      "type": "VEC3"
    },
    {
      "bufferView": 2,
      "byteOffset": 304740,
      "componentType": 5126,
      "count": 24955,
      "max": [
        0.99995958805084229,
        0.99993264675140381,
        0.99998927116394043
      ],
      "min": [
        -0.99998223781585693,
        -0.99992871284484863,
        -0.99994242191314697
      ],
      "type": "VEC3"
    },
    {
      "bufferView": 3,
      "byteOffset": 3520,
      "componentType": 5126,
      "count": 24955,
      "max": [
        1,
        1,
        1,
        1
      ],
      "min": [
        1,
        1,
        1,
        1
      ],
      "type": "VEC4"
    },
    {
      "bufferView": 1,
      "byteOffset": 1760,
      "componentType": 5126,
      "count": 24955,
      "max": [
        0.98805618286132812,
        0.98694872856140137
      ],
      "min": [
        0.0096295773983001709,
        0.0070426464080810547
      ],
      "type": "VEC2"
    },
    {
      "bufferView": 0,
      "byteOffset": 4320,
      "componentType": 5125,
      "count": 143172,
      "max": [
        24954
      ],
      "min": [
        0
      ],
      "type": "SCALAR"
    },
    {
      "bufferView": 2,
      "byteOffset": 604200,
      "componentType": 5126,
      "count": 1010,
      "max": [
        6.1877036094665527,
        68.49755859375,
        3.47731614112854
      ],
      "min": [
        -7.1142420768737793,
        51.242534637451172,
        -12.302803993225098
      ],
      "type": "VEC3"
    },
    {
      "bufferView": 2,
      "byteOffset": 616320,
      "componentType": 5126,
      "count": 1010,
      "max": [
        0.99991786479949951,
        0.99819672107696533,
        0.99476754665374756
      ],
      "min": [
        -0.99857228994369507,
        -0.82353335618972778,
        -0.99833351373672485
      ],
      "type": "VEC3"
    },
    {
      "bufferView": 3,
      "byteOffset": 402800,
      "componentType": 5126,
      "count": 1010,
      "max": [
        1,
        1,
        1,
        1
      ],
      "min": [
        1,
        1,
        1,
        1
      ],
      "type": "VEC4"
    },
    {
      "bufferView": 1,
      "byteOffset": 201400,
      "componentType": 5126,
      "count": 1010,
      "max": [
        0.99181652069091797,
        0.9908905029296875
      ],
      "min": [
        0.009519786573946476,
        0.018291950225830078
      ],
      "type": "VEC2"
    },
    {
      "bufferView": 0,
      "byteOffset": 577008,
      "componentType": 5125,
      "count": 4665,
      "max": [
        1009
      ],
      "min": [
        0
      ],
      "type": "SCALAR"
    },
    {
      "bufferView": 2,
      "byteOffset": 628440,
      "componentType": 5126,
      "count": 3336,
      "max": [
        3.0477373600006104,
        65.948600769042969,
        2.5579607486724854
      ],
      "min": [
        -3.2493712902069092,
        58.846687316894531,
        -3.7603421211242676
      ],
      "type": "VEC3"
    },
    {
      "bufferView": 2,
      "byteOffset": 668472,
      "componentType": 5126,
      "count": 3336,
      "max": [
        0.99962842464447021,
        0.99380677938461304,
        0.99977493286132812
      ],
      "min": [
        -0.99901372194290161,
        -0.99682867527008057,
        -0.99969339370727539
      ],
      "type": "VEC3"
    },
    {
      "bufferView": 3,
      "byteOffset": 418960,
      "componentType": 5126,
      "count": 3336,
      "max": [
        1,
        1,
        1,
        1
      ],
      "min": [
        1,
        1,
        1,
        1
      ],
      "type": "VEC4"
    },
    {
      "bufferView": 1,
      "byteOffset": 209480,
      "componentType": 5126,
      "count": 3336,
      "max": [
        0.98836946487426758,
        0.98635232448577881
      ],
      "min": [
        0.0094891488552093506,
        0.0061563849449157715
      ],
      "type": "VEC2"
    },
    {
      "bufferView": 0,
      "byteOffset": 595668,
      "componentType": 5125,
      "count": 18468,
      "max": [
        3335
      ],
      "min": [
        0
      ],
      "type": "SCALAR"
    },
    {
      "bufferView": 2,
      "byteOffset": 708504,
      "componentType": 5126,
      "count": 24,
      "max": [
        1,
        0,
        1
      ],
      "min": [
        -1,
        -0.020789533853530884,
        -1
      ],
      "type": "VEC3"
    },
    {
      "bufferView": 2,
      "byteOffset": 708792,
      "componentType": 5126,
      "count": 24,
      "max": [
        1,
        1,
        1
      ],
      "min": [
        -1,
        -1,
        -1
      ],
      "type": "VEC3"
    },
    {
      "bufferView": 1,
      "byteOffset": 236168,
      "componentType": 5126,
      "count": 24,
      "max": [
        1,
        1
      ],
      "min": [
        0,
        0
      ],
      "type": "VEC2"
    },
    {
      "bufferView": 0,
      "byteOffset": 669540,
      "componentType": 5125,
      "count": 36,
      "max": [
        23
      ],
      "min": [
        0
      ],
      "type": "SCALAR"
    }
  ],
  "asset": {
    "extras": {
      "author": "Isi.Izzy (https://sketchfab.com/Isi.Izzy)",
      "license": "CC-BY-4.0 (http://creativecommons.org/licenses/by/4.0/)",
      "source": "https://sketchfab.com/3d-models/neon-genesis-evangelion-asuka-1ceaebde82bf44e5b4f01378d660cd73",
      "title": "Neon Genesis Evangelion - Asuka"
    },
    "generator": "Sketchfab-7.95.0",
    "version": "2.0"
  },
  "bufferViews": [
    {
      "buffer": 0,
      "byteLength": 669684,
      "byteOffset": 0,
      "name": "floatBufferViews",
      "target": 34963
    },
    {
      "buffer": 0,
      "byteLength": 236360,
      "byteOffset": 669684,
      "byteStride": 8,
      "name": "floatBufferViews",
      "target": 34962
    },
    {
      "buffer": 0,
      "byteLength": 709080,
      "byteOffset": 906044,
      "byteStride": 12,
      "name": "floatBufferViews",
      "target": 34962
    },
    {
      "buffer": 0,
      "byteLength": 472336,
      "byteOffset": 1615124,
      "byteStride": 16,
      "name": "floatBufferViews",
      "target": 34962
    }
  ],
  "buffers": [
    {
      "byteLength": 2087460,
      "uri": "scene.bin"
    }
  ],
  "extensionsRequired": [
    "KHR_materials_pbrSpecularGlossiness"
  ],
  "extensionsUsed": [
    "KHR_materials_pbrSpecularGlossiness"
  ],
  "images": [
    {
      "uri": "textures/Material.004_diffuse.png"
    },
    {
      "uri": "textures/Material.002_diffuse.png"
    },
    {
      "uri": "textures/Material.003_diffuse.png"
    },
    {
      "uri": "textures/Material.001_diffuse.png"
    }
  ],
  "materials": [
    {
      "doubleSided": true,
      "emissiveFactor": [
        0,
        0,
        0
      ],
      "extensions": {
        "KHR_materials_pbrSpecularGlossiness": {
          "diffuseFactor": [
            1,
            1,
            1,
            1
          ],
          "diffuseTexture": {
            "index": 0,
            "texCoord": 0
          },
          "glossinessFactor": 0.73406704116917254,
          "specularFactor": [
            0.11498956260441234,
            0.11498956260441234,
            0.11498956260441234
          ]
        }
      },
      "name": "Material.004"
    },
    {
      "doubleSided": true,
      "extensions": {
        "KHR_materials_pbrSpecularGlossiness": {
          "diffuseFactor": [
            1,
            1,
            1,
            1
          ],
          "diffuseTexture": {
            "index": 1,
            "texCoord": 0
          },
          "glossinessFactor": 0.76551358204967568,
          "specularFactor": [
            0.026939248139003537,
            0.026939248139003537,
            0.026939248139003537
          ]
        }
      },
      "name": "Material.002"
    },
    {
      "doubleSided": true,
      "emissiveFactor": [
        0,
        0,
        0
      ],
      "extensions": {
        "KHR_materials_pbrSpecularGlossiness": {
          "diffuseFactor": [
            1,
            1,
            1,
            1
          ],
          "diffuseTexture": {
            "index": 2,
            "texCoord": 0
          },
          "glossinessFactor": 0.32526200972263164,
          "specularFactor": [
            0.026939248139003537,
            0.026939248139003537,
            0.026939248139003537
          ]
        }
      },
      "name": "Material.003"
    },
    {
      "doubleSided": true,
      "emissiveFactor": [
        0,
        0,
        0
      ],
      "extensions": {
        "KHR_materials_pbrSpecularGlossiness": {
          "diffuseFactor": [
            1,
            1,
            1,
            1
          ],
          "diffuseTexture": {
            "index": 3,
            "texCoord": 0
          },
          "glossinessFactor": 0.20576515437671972,
          "specularFactor": [
            0,
            0,
            0
          ]
        }
      },
      "name": "Material.001"
    },
    {
      "doubleSided": true,
      "emissiveFactor": [
        0,
        0,
        0
      ],
      "extensions": {
        "KHR_materials_pbrSpecularGlossiness": {
          "diffuseFactor": [
            0,
            0,
            0,
            1
          ],
          "glossinessFactor": 0.91322309999999995,
          "specularFactor": [
            0.53008390222705382,
            0.53008390222705382,
            0.53008390222705382
          ]
        }
      },
      "name": "Material.009"
    }
  ],
  "meshes": [
    {
      "primitives": [
        {
          "attributes": {
            "COLOR_0": 2,
            "NORMAL": 1,
            "POSITION": 0,
            "TEXCOORD_0": 3
          },
          "indices": 4,
          "material": 0,
          "mode": 4
        }
      ]
    },
    {
      "primitives": [
        {
          "attributes": {
            "COLOR_0": 7,
            "NORMAL": 6,
            "POSITION": 5,
            "TEXCOORD_0": 8
          },
          "indices": 9,
          "material": 1,
          "mode": 4
        }
      ]
    },
    {
      "primitives": [
        {
          "attributes": {
            "COLOR_0": 12,
            "NORMAL": 11,
            "POSITION": 10,
            "TEXCOORD_0": 13
          },
          "indices": 14,
          "material": 2,
          "mode": 4
        }
      ]
    },
    {
      "primitives": [
        {
          "attributes": {
            "COLOR_0": 17,
            "NORMAL": 16,
            "POSITION": 15,
            "TEXCOORD_0": 18
          },
          "indices": 19,
          "material": 3,
          "mode": 4
        }
      ]
    },
    {
      "primitives": [
        {
          "attributes": {
            "NORMAL": 21,
            "POSITION": 20,
            "TEXCOORD_0": 22
          },
          "indices": 23,
          "material": 4,
          "mode": 4
        }
      ]
    }
  ],
  "nodes": [
    {
      "children": [
        1
      ],
      "name": "RootNode (gltf orientation matrix)",
      "rotation": [
        -0.70710678118654746,
        -0,
        -0,
        0.70710678118654757
      ]
    },
    {
      "children": [
        2
      ],
      "name": "RootNode (model correction matrix)"
    },
    {
      "children": [
        3
      ],
      "name": "root"
    },
    {
      "children": [
        4,
        9
      ],
      "matrix": [
        1,
        0,
        0,
        0,
        0,
        2.2204460492503131e-16,
        1,
        0,
        0,
        -1,
        2.2204460492503131e-16,
        0,
        0,
        0,
        0,
        1
      ],
      "name": "GLTF_SceneRootNode"
    },
    {
      "children": [
        5,
        6,
        7,
        8
      ],
      "matrix": [
        0.11757447570562363,
        0,
        0,
        0,
        0,
        0.11757447570562363,
        0,
        0,
        0,
        0,
        0.11757447570562363,
        0,
        0,
        0,
        0,
        1
      ],
      "name": "EYES.000_0"
    },
    {
      "mesh": 0,
      "name": ""
    },
    {
      "mesh": 1,
      "name": ""
    },
    {
      "mesh": 2,
      "name": ""
    },
    {
      "mesh": 3,
      "name": ""
    },
    {
      "children": [
        10
      ],
      "matrix": [
        2.4145426750183105,
        0,
        0,
        0,
        0,
        2.4145426750183105,
        0,
        0,
        0,
        0,
        2.4145426750183105,
        0,
        0,
        -0.14070434868335724,
        0,
        1
      ],
      "name": "Plane_5"
    },
    {
      "mesh": 4,
      "name": ""
    }
  ],
  "samplers": [
    {
      "magFilter": 9729,
      "minFilter": 9987,
      "wrapS": 10497,
      "wrapT": 10497
    }
  ],
  "scene": 0,
  "scenes": [
    {
      "name": "OSG_Scene",
      "nodes": [
        0
      ]
    }
  ],
  "textures": [
    {
      "sampler": 0,
      "source": 0
    },
    {
      "sampler": 0,
      "source": 1
    },
    {
      "sampler": 0,
      "source": 2
    },
    {
      "sampler": 0,
      "source": 3
    }
  ]
}

